# Blender v2.93.5 OBJ File: 'connelbox.blend'
# www.blender.org
mtllib connelbox.mtl
o floor
v 552.799988 0.000000 0.000000
v 0.000000 0.000000 0.000000
v 0.000000 -0.000024 559.200012
v 549.599976 -0.000024 559.200012
v 290.000000 -0.000005 114.000000
v 240.000000 -0.000012 272.000000
v 82.000000 -0.000010 225.000000
v 130.000000 -0.000003 65.000000
v 472.000000 -0.000018 406.000000
v 314.000000 -0.000020 456.000000
v 265.000000 -0.000013 296.000000
v 423.000000 -0.000011 247.000000
vn 0.0000 1.0000 0.0000
vn 0.0000 -1.0000 -0.0000
usemtl white
s off
f 1//1 2//1 3//1 4//1
f 5//2 6//2 7//2 8//2
f 9//2 10//2 11//2 12//2
o light
v 343.000000 548.000000 227.000031
v 343.000000 548.000000 332.000031
v 213.000000 548.000000 332.000031
v 213.000000 548.000000 227.000031
vn 0.0000 -1.0000 0.0000
usemtl light
s off
f 13//3 14//3 15//3 16//3
o ceiling
v 556.000000 548.799988 0.000024
v 556.000000 548.799988 559.200012
v 0.000000 548.799988 559.200012
v 0.000000 548.799988 0.000024
vn 0.0000 -1.0000 0.0000
usemtl white
s off
f 17//4 18//4 19//4 20//4
o back_wall
v 549.599976 -0.000024 559.200012
v 0.000000 -0.000024 559.200012
v 0.000000 548.799988 559.200012
v 556.000000 548.799988 559.200012
vn 0.0000 0.0000 -1.0000
usemtl white
s off
f 21//5 22//5 23//5 24//5
o green_wall
v 0.000000 -0.000024 559.200012
v 0.000000 0.000000 0.000000
v 0.000000 548.799988 0.000024
v 0.000000 548.799988 559.200012
vn 1.0000 0.0000 0.0000
usemtl green
s off
f 25//6 26//6 27//6 28//6
o red_wall
v 552.799988 0.000000 0.000000
v 549.599976 -0.000024 559.200012
v 556.000000 548.799988 559.200012
v 556.000000 548.799988 0.000024
vn -1.0000 0.0087 -0.0029
usemtl red
s off
f 29//7 30//7 31//7 32//7
o short_block
v 130.000000 165.000000 65.000008
v 82.000000 164.999985 225.000000
v 240.000000 164.999985 272.000000
v 290.000000 165.000000 114.000008
v 290.000000 -0.000005 114.000000
v 290.000000 165.000000 114.000008
v 240.000000 164.999985 272.000000
v 240.000000 -0.000012 272.000000
v 130.000000 -0.000003 65.000000
v 130.000000 165.000000 65.000008
v 290.000000 165.000000 114.000008
v 290.000000 -0.000005 114.000000
v 82.000000 -0.000010 225.000000
v 82.000000 164.999985 225.000000
v 130.000000 165.000000 65.000008
v 130.000000 -0.000003 65.000000
v 240.000000 -0.000012 272.000000
v 240.000000 164.999985 272.000000
v 82.000000 164.999985 225.000000
v 82.000000 -0.000010 225.000000
vn -0.0000 1.0000 0.0000
vn 0.9534 -0.0000 0.3017
vn 0.2928 0.0000 -0.9562
vn -0.9578 0.0000 -0.2873
vn -0.2851 0.0000 0.9585
usemtl white
s off
f 33//8 34//8 35//8 36//8
f 37//9 38//9 39//9 40//9
f 41//10 42//10 43//10 44//10
f 45//11 46//11 47//11 48//11
f 49//12 50//12 51//12 52//12
o tall_block
v 423.000000 330.000000 247.000015
v 265.000000 330.000000 296.000000
v 314.000000 329.999969 456.000000
v 472.000000 329.999969 406.000000
v 423.000000 -0.000011 247.000000
v 423.000000 330.000000 247.000015
v 472.000000 329.999969 406.000000
v 472.000000 -0.000018 406.000000
v 472.000000 -0.000018 406.000000
v 472.000000 329.999969 406.000000
v 314.000000 329.999969 456.000000
v 314.000000 -0.000020 456.000000
v 314.000000 -0.000020 456.000000
v 314.000000 329.999969 456.000000
v 265.000000 330.000000 296.000000
v 265.000000 -0.000013 296.000000
v 265.000000 -0.000013 296.000000
v 265.000000 330.000000 296.000000
v 423.000000 330.000000 247.000015
v 423.000000 -0.000011 247.000000
vn 0.0000 1.0000 0.0000
vn 0.9556 0.0000 -0.2945
vn 0.3017 0.0000 0.9534
vn -0.9562 0.0000 0.2928
vn -0.2962 0.0000 -0.9551
usemtl white
s off
f 53//13 54//13 55//13 56//13
f 57//14 58//14 59//14 60//14
f 61//15 62//15 63//15 64//15
usemtl green
f 65//16 66//16 67//16 68//16
f 69//17 70//17 71//17 72//17
